name C:\Users\u0150099\Documents\master_thesis\3dpredictsim\Results\debug\Fal_s1_mtj_sc_cspx10_oy_TrackSubtQ_MTPm_k1_d01_MTJm_nl_MG_exp_table_d01_PF_Gefen2002_ls146_FDB_ig21.mot
datacolumns 130
datarows 4
range 1.59723464 1.62917933
endheader
time	pelvis_tilt	pelvis_list	pelvis_rotation	pelvis_tx	pelvis_ty	pelvis_tz	hip_flexion_l	hip_adduction_l	hip_rotation_l	hip_flexion_r	hip_adduction_r	hip_rotation_r	knee_angle_l	knee_angle_r	ankle_angle_l	ankle_angle_r	subtalar_angle_l	subtalar_angle_r	mtj_angle_l	mtj_angle_r	mtp_angle_l	mtp_angle_r	lumbar_extension	lumbar_bending	lumbar_rotation	arm_flex_l	arm_add_l	arm_rot_l	arm_flex_r	arm_add_r	arm_rot_r	elbow_flex_l	elbow_flex_r	pro_sup_l	pro_sup_r	glut_med1_l/activation	glut_med2_l/activation	glut_med3_l/activation	glut_min1_l/activation	glut_min2_l/activation	glut_min3_l/activation	semimem_l/activation	semiten_l/activation	bifemlh_l/activation	bifemsh_l/activation	sar_l/activation	add_long_l/activation	add_brev_l/activation	add_mag1_l/activation	add_mag2_l/activation	add_mag3_l/activation	tfl_l/activation	pect_l/activation	grac_l/activation	glut_max1_l/activation	glut_max2_l/activation	glut_max3_l/activation	iliacus_l/activation	psoas_l/activation	quad_fem_l/activation	gem_l/activation	peri_l/activation	rect_fem_l/activation	vas_med_l/activation	vas_int_l/activation	vas_lat_l/activation	med_gas_l/activation	lat_gas_l/activation	soleus_l/activation	tib_post_l/activation	flex_dig_l/activation	flex_hal_l/activation	tib_ant_l/activation	per_brev_l/activation	per_long_l/activation	per_tert_l/activation	ext_dig_l/activation	ext_hal_l/activation	FDB_l/activation	ercspn_l/activation	intobl_l/activation	extobl_l/activation	glut_med1_r/activation	glut_med2_r/activation	glut_med3_r/activation	glut_min1_r/activation	glut_min2_r/activation	glut_min3_r/activation	semimem_r/activation	semiten_r/activation	bifemlh_r/activation	bifemsh_r/activation	sar_r/activation	add_long_r/activation	add_brev_r/activation	add_mag1_r/activation	add_mag2_r/activation	add_mag3_r/activation	tfl_r/activation	pect_r/activation	grac_r/activation	glut_max1_r/activation	glut_max2_r/activation	glut_max3_r/activation	iliacus_r/activation	psoas_r/activation	quad_fem_r/activation	gem_r/activation	peri_r/activation	rect_fem_r/activation	vas_med_r/activation	vas_int_r/activation	vas_lat_r/activation	med_gas_r/activation	lat_gas_r/activation	soleus_r/activation	tib_post_r/activation	flex_dig_r/activation	flex_hal_r/activation	tib_ant_r/activation	per_brev_r/activation	per_long_r/activation	per_tert_r/activation	ext_dig_r/activation	ext_hal_r/activation	FDB_r/activation	ercspn_r/activation	intobl_r/activation	extobl_r/activation	
          1.59723464	         -2.92278443	          1.60849372	         -2.72415943	          2.12432207	          0.91117185	          0.00375975	         29.88238829	          3.10730559	         -4.50616088	        -11.07655671	          2.11980497	          4.19625160	        -14.61421185	        -20.45433227	          8.91160452	          2.49972065	          0.29399483	          1.69014204	         -3.95458160	          1.35799400	         21.17155846	         25.54714830	         -3.39975242	         -0.90392478	          1.84053842	         -4.39660597	        -13.47604323	          5.83576138	          4.07681688	        -13.76623249	         19.34787699	         26.80748071	         32.42580038	         86.51662706	         86.51662706	          0.05192688	          0.05426500	          0.05000066	          0.05692844	          0.05022248	          0.05000100	          0.28331886	          0.08162440	          0.34241650	          0.08162436	          0.05000014	          0.06857563	          0.09352153	          0.09956990	          0.06583045	          0.15425177	          0.05000027	          0.05000078	          0.08162453	          0.05230785	          0.07839751	          0.14332350	          0.06333086	          0.09117213	          0.09020178	          0.05000122	          0.05000071	          0.05000002	          0.05000009	          0.05000008	          0.05000006	          0.06198672	          0.05714028	          0.05000008	          0.19067195	          0.07708558	          0.05000122	          0.40169947	          0.05853169	          0.29850578	          0.24840020	          0.54975553	          0.06909779	          0.06256368	          0.05039221	          0.10070516	          0.13625698	          0.22112660	          0.06932169	          0.05002230	          0.45697583	          0.19497006	          0.06980510	          0.05000030	          0.05000002	          0.05000003	          0.05000003	          0.05479925	          0.05000002	          0.05000004	          0.05000008	          0.05000027	          0.05000014	          0.56074764	          0.05000017	          0.05000007	          0.05000157	          0.05000074	          0.05000027	          0.46151928	          0.54973932	          0.05000004	          0.05000030	          0.05000043	          0.57544401	          0.21101028	          0.21264814	          0.17934951	          0.29791750	          0.49347985	          0.16224756	          0.81117050	          0.54157147	          0.72025033	          0.05000000	          0.05000001	          0.60542254	          0.05000000	          0.05000000	          0.06717366	          0.99999978	          0.05000000	          0.05000001	          0.05000001	
          1.60788287	         -2.92731417	          1.71405412	         -3.00047102	          2.14087485	          0.90958026	          0.00345748	         29.78401972	          3.32939851	         -4.42881950	        -11.88821918	          1.77308425	          4.11427556	        -14.62635155	        -20.57539334	          8.57291458	          1.60315758	          0.24967574	          2.08213351	         -3.54183692	          0.36788998	         20.55131528	         28.04010290	         -3.24747052	         -1.10345523	          1.95887064	         -5.02280646	        -13.45235328	          5.20782422	          3.84524915	        -13.72063001	         19.38261160	         26.05950278	         33.49163763	         86.51662706	         86.51662706	          0.14555797	          0.05000006	          0.05887314	          0.05000005	          0.05000007	          0.05000033	          0.26412210	          0.06932184	          0.32969050	          0.06932184	          0.05887416	          0.08087590	          0.08444877	          0.10063470	          0.05590855	          0.18010351	          0.05000045	          0.05048873	          0.06932208	          0.05000035	          0.10014044	          0.17083165	          0.05651311	          0.09610288	          0.19917874	          0.05000110	          0.05000042	          0.05000000	          0.05000000	          0.05000000	          0.05000000	          0.05887350	          0.05887349	          0.05203376	          0.23058385	          0.06546713	          0.06607879	          0.40725106	          0.07135802	          0.33402185	          0.27462135	          0.55312320	          0.05868325	          0.07309494	          0.05000000	          0.10024166	          0.13113032	          0.23626059	          0.05887345	          0.05000006	          0.38809982	          0.16558385	          0.05928397	          0.05000051	          0.05000005	          0.05000005	          0.05000003	          0.05000021	          0.05000006	          0.05000012	          0.05000023	          0.05000076	          0.05000143	          0.49361437	          0.05000023	          0.05000013	          0.05000156	          0.05000109	          0.05000086	          0.41902026	          0.63915910	          0.05000006	          0.05000014	          0.05000003	          0.52098604	          0.21943439	          0.22145375	          0.18726941	          0.27475829	          0.46743529	          0.14759214	          0.75351843	          0.49414251	          0.68935845	          0.05000000	          0.05000003	          0.52733384	          0.05000002	          0.05000000	          0.06532408	          0.99999969	          0.05000000	          0.05291571	          0.05000004	
          1.61853110	         -2.92965452	          1.81812903	         -3.26709040	          2.15773756	          0.90796261	          0.00313275	         29.67662470	          3.55276664	         -4.31276856	        -12.62346168	          1.41668879	          4.02918319	        -15.29437361	        -20.81191016	          7.84603996	          0.68805343	          0.13738096	          2.53310892	         -3.10650542	         -0.90451509	         19.88497062	         30.87661272	         -3.08100893	         -1.30692325	          2.07060957	         -5.67599120	        -13.45201838	          4.79462471	          3.53201131	        -13.66446017	         19.30616890	         25.31011552	         34.58425597	         86.51662706	         86.51662706	          0.13189937	          0.05887346	          0.05000003	          0.05887354	          0.05887349	          0.05000056	          0.22431314	          0.05887353	          0.27999896	          0.05887353	          0.05000065	          0.07368455	          0.07172064	          0.12570372	          0.12747068	          0.21343169	          0.05000030	          0.05000054	          0.05887375	          0.05006362	          0.13468594	          0.23099229	          0.05550522	          0.08161901	          0.34170256	          0.11316689	          0.05000011	          0.08431134	          0.05000015	          0.05000027	          0.05000020	          0.05000000	          0.05000000	          0.05000000	          0.19582991	          0.05559982	          0.05611932	          0.43257513	          0.07268083	          0.32301191	          0.45540544	          0.60202869	          0.05887355	          0.06256955	          0.05000000	          0.08513307	          0.11136613	          0.20065113	          0.05000002	          0.05000000	          0.32960505	          0.14062678	          0.05034862	          0.05000176	          0.05000013	          0.05000007	          0.05887348	          0.05040727	          0.08565340	          0.05000016	          0.05000009	          0.05000028	          0.05000029	          0.48012087	          0.05000330	          0.05000009	          0.05000016	          0.05000010	          0.05000007	          0.36599616	          0.60461862	          0.05000000	          0.05000004	          0.05000011	          0.48861842	          0.23014983	          0.23686443	          0.20079405	          0.23334622	          0.39698267	          0.12534679	          0.67048463	          0.41966452	          0.58545783	          0.05000000	          0.05000001	          0.44785314	          0.05000003	          0.05000000	          0.08162432	          0.84927792	          0.05000000	          0.06780247	          0.05000002	
          1.62917933	         -2.93014080	          1.92200037	         -3.52502900	          2.17490760	          0.90633091	          0.00278968	         29.52618750	          3.75563058	         -4.15556747	        -13.29552418	          1.04683606	          3.93041869	        -16.59045836	        -21.12464096	          6.89326183	         -0.29160769	         -0.07335360	          3.03779487	         -2.66776273	         -2.42660054	         19.15736822	         34.03863403	         -2.89862011	         -1.51178518	          2.17292393	         -6.36118575	        -13.47122528	          4.56615430	          3.13987925	        -13.61387570	         19.18503539	         24.57230581	         35.71739428	         86.51662706	         86.51662706	          0.24821108	          0.05000001	          0.17529547	          0.05000004	          0.05000003	          0.05000003	          0.19050425	          0.05000001	          0.23779701	          0.05000000	          0.06929039	          0.08162444	          0.16196504	          0.10675754	          0.10825812	          0.24616729	          0.05000140	          0.06950993	          0.05000020	          0.05000001	          0.20668270	          0.28288046	          0.06932187	          0.06932184	          0.31063227	          0.09611034	          0.13443133	          0.07160379	          0.08870454	          0.08579372	          0.07148380	          0.06932189	          0.07353314	          0.06932183	          0.16631408	          0.12302896	          0.05887360	          0.59654940	          0.40266700	          0.27432697	          0.38676591	          0.51128984	          0.05000002	          0.05313896	          0.05000000	          0.07230166	          0.09458082	          0.20294688	          0.05000022	          0.05094044	          0.27992640	          0.11943128	          0.05000023	          0.05000032	          0.05000008	          0.05000012	          0.05000002	          0.05017574	          0.15750075	          0.05887383	          0.05887352	          0.05887316	          0.05021111	          0.41158308	          0.08140633	          0.05584448	          0.05003150	          0.05000486	          0.05887284	          0.31083258	          0.59409482	          0.05887351	          0.05000131	          0.05000002	          0.41497298	          0.21072208	          0.21753015	          0.18826426	          0.19817586	          0.33714872	          0.10645429	          0.56942796	          0.35641192	          0.49721658	          0.05000000	          0.05000000	          0.42039911	          0.05000000	          0.05000000	          0.06932188	          0.72127321	          0.05000001	          0.05887352	          0.05887352	
